<?xml version="1.0" standalone="no"?>
<!DOCTYPE svg PUBLIC "-//W3C//DTD SVG 20010904//EN"
 "http://www.w3.org/TR/2001/REC-SVG-20010904/DTD/svg10.dtd">
<svg version="1.0" xmlns="http://www.w3.org/2000/svg"
 width="1600.000000pt" height="1600.000000pt" viewBox="0 0 1600.000000 1600.000000"
 preserveAspectRatio="xMidYMid meet">

<g transform="translate(0.000000,1600.000000) scale(0.100000,-0.100000)"
fill="#000000" stroke="none">
<path d="M7340 14883 c-345 -36 -752 -118 -1058 -212 -1316 -405 -2412 -1234
-3141 -2376 -434 -679 -726 -1476 -835 -2275 -62 -453 -65 -1000 -10 -1450
140 -1140 623 -2211 1386 -3073 572 -645 1321 -1172 2119 -1490 526 -210 1186
-366 1604 -379 l90 -3 0 332 c0 182 -4 335 -8 339 -4 5 -43 14 -85 20 -727
115 -1156 242 -1667 494 -328 161 -619 346 -900 571 -171 136 -199 161 -398
358 -784 773 -1280 1787 -1417 2898 -90 723 -16 1447 220 2153 475 1428 1578
2558 3000 3075 199 73 587 176 784 209 149 26 357 57 419 63 l57 6 0 222 c0
122 -3 290 -7 373 l-6 152 -56 -2 c-31 0 -72 -3 -91 -5z"/>
<path d="M8425 14516 c-4 -204 -3 -371 1 -376 5 -5 88 -20 184 -35 746 -114
1405 -365 2010 -764 303 -200 518 -377 780 -640 545 -547 937 -1182 1180
-1911 178 -532 253 -999 253 -1565 0 -507 -58 -911 -200 -1395 -171 -586 -472
-1170 -849 -1645 -189 -238 -451 -513 -664 -695 -684 -586 -1517 -973 -2420
-1125 -85 -14 -174 -31 -197 -37 l-43 -10 0 -203 c0 -111 3 -263 7 -338 l6
-137 64 0 c116 0 491 64 733 125 871 219 1633 612 2329 1202 155 131 450 427
593 593 1022 1193 1507 2742 1343 4290 -108 1007 -482 1963 -1090 2785 -224
302 -568 671 -855 915 -812 691 -1778 1134 -2825 1296 -88 13 -199 27 -246 31
l-86 6 -8 -367z"/>
<path d="M7645 13510 c-851 -58 -1680 -380 -2345 -909 -642 -512 -1108 -1172
-1375 -1951 -113 -330 -205 -773 -205 -985 l0 -75 250 0 c192 0 251 3 254 13
2 6 9 44 15 82 75 459 136 692 257 989 58 140 155 346 164 346 4 0 5 -307 2
-682 -4 -651 -4 -682 14 -695 14 -10 93 -13 376 -13 l357 0 3 -360 c2 -278 6
-362 16 -372 12 -12 154 -18 685 -27 l67 -1 0 -359 c0 -198 3 -362 8 -365 4
-2 181 -7 393 -12 282 -5 388 -4 393 4 4 7 7 177 6 378 l0 367 365 -8 c281 -5
369 -4 380 5 12 10 15 44 15 174 0 88 3 259 7 379 l6 217 66 0 66 -1 30 -67
c116 -259 350 -458 650 -549 83 -25 104 -27 265 -27 153 -1 186 2 260 22 296
81 535 280 665 553 135 287 132 598 -9 884 -133 268 -361 456 -652 537 -68 19
-104 22 -259 22 -152 0 -191 -3 -252 -21 l-73 -21 0 223 c0 273 10 255 -148
255 -64 0 -113 4 -117 10 -4 6 -9 110 -12 233 -3 122 -10 230 -15 240 -8 16
-49 17 -652 17 l-643 0 -6 -272 c-4 -149 -7 -318 -7 -375 l0 -103 -351 0 -352
0 4 373 4 372 -412 3 c-231 1 -413 6 -413 11 0 8 138 131 245 217 287 232 696
454 1083 588 659 229 1412 259 2097 86 1030 -261 1891 -946 2381 -1895 192
-371 305 -740 379 -1235 10 -63 19 -121 21 -129 4 -11 24 -13 111 -8 58 4 182
7 275 7 l168 0 0 44 c0 92 -44 381 -90 586 -54 246 -150 528 -274 804 -239
535 -609 1036 -1056 1429 -657 578 -1463 932 -2345 1032 -165 19 -570 27 -740
15z m73 -2075 c9 -3 12 -36 12 -117 l0 -113 115 0 c92 0 118 -3 126 -15 9 -14
10 -251 1 -277 -3 -10 -42 -13 -148 -13 -108 0 -144 3 -145 13 0 6 0 60 1 118
l1 106 -111 5 c-65 3 -117 11 -123 17 -15 15 -23 242 -9 267 9 17 21 19 139
16 70 -2 134 -5 141 -7z"/>
<path d="M9788 11693 l-348 -3 1 -288 c1 -158 4 -332 8 -387 9 -140 16 -139
158 13 l112 119 373 7 c237 5 377 11 385 18 10 8 13 66 13 240 0 225 -4 261
-34 280 -6 4 -81 7 -166 5 -85 -1 -311 -3 -502 -4z m647 -259 c6 -167 4 -208
-6 -215 -8 -4 -160 -8 -339 -9 -179 0 -343 -5 -365 -10 -33 -7 -57 -26 -131
-106 l-92 -97 -4 314 c-2 173 -3 317 -1 322 3 4 213 7 467 7 l463 0 8 -206z"/>
<path d="M11586 8884 c-3 -8 -15 -72 -25 -142 -123 -800 -480 -1505 -1050
-2072 -655 -651 -1501 -1024 -2431 -1069 -570 -28 -1131 78 -1667 314 -454
200 -855 487 -1211 869 -481 515 -798 1160 -927 1886 -14 80 -28 157 -31 173
l-6 27 -186 0 c-103 0 -218 -3 -256 -7 l-69 -6 6 -91 c11 -181 92 -547 174
-796 306 -918 879 -1674 1673 -2205 581 -388 1224 -619 1945 -697 157 -17 674
-17 820 0 546 64 971 184 1423 402 201 98 310 159 475 266 899 588 1538 1484
1797 2522 49 195 89 423 97 550 l6 92 -275 0 c-242 0 -277 -2 -282 -16z"/>
<path d="M8806 8830 c-178 -28 -396 -100 -536 -177 -513 -280 -889 -772 -1072
-1402 -27 -92 -30 -114 -20 -135 l12 -26 477 1 c263 0 1044 4 1736 8 1080 6
1260 9 1268 22 15 24 10 89 -16 203 -65 286 -170 533 -326 766 -258 384 -612
632 -1029 722 -108 23 -394 33 -494 18z"/>
<path d="M2917 2783 c-13 -12 -7 -63 6 -63 18 0 348 -752 336 -765 -5 -5 -9
-22 -9 -37 l0 -28 190 0 190 0 0 35 c0 19 -4 35 -10 35 -5 0 5 33 21 73 192
454 293 683 306 692 8 6 13 22 11 36 l-3 24 -162 3 -163 2 0 -34 c0 -19 5 -36
11 -38 11 -4 -169 -418 -181 -418 -3 1 -48 94 -100 207 -63 138 -91 208 -82
211 6 2 12 19 12 38 l0 34 -183 0 c-101 0 -187 -3 -190 -7z m293 -55 c0 -12
237 -529 248 -540 9 -8 242 506 242 532 0 18 7 20 91 20 90 0 91 0 85 -23 -3
-12 -61 -154 -130 -315 -69 -160 -140 -330 -158 -377 l-33 -84 -117 -1 c-81 0
-118 4 -118 11 0 10 -35 93 -261 611 -38 87 -69 162 -69 168 0 6 43 10 110 10
77 0 110 -4 110 -12z"/>
<path d="M9609 2766 c-121 -42 -207 -118 -261 -233 -64 -134 -53 -313 25 -426
10 -15 17 -33 14 -40 -3 -7 -103 -118 -223 -246 -121 -128 -221 -240 -223
-249 -8 -38 59 -113 101 -112 7 0 118 104 246 230 128 125 239 234 247 240 10
8 22 7 48 -4 20 -8 68 -20 109 -26 60 -10 86 -9 144 3 232 49 374 235 362 471
-4 73 -10 95 -42 161 -41 83 -107 156 -179 198 -102 60 -251 73 -368 33z m268
-107 c78 -29 162 -113 192 -193 62 -166 -15 -355 -176 -428 -90 -40 -193 -40
-279 1 -214 101 -264 368 -100 539 40 42 95 77 146 93 51 15 158 10 217 -12z"/>
<path d="M9617 2544 c-4 -4 -7 -25 -7 -46 0 -38 0 -38 -40 -38 l-40 0 0 -94 0
-95 38 -3 c36 -3 37 -4 40 -45 l3 -43 45 0 44 0 0 -46 0 -45 53 3 52 3 5 40
c5 38 7 40 43 43 36 3 37 4 37 43 0 37 2 39 31 39 61 0 67 10 65 107 l-1 88
-45 5 c-44 5 -45 6 -50 45 -5 38 -7 40 -42 41 -48 2 -56 -4 -60 -46 -3 -31 -6
-35 -35 -38 -31 -3 -32 -2 -35 40 l-3 43 -45 3 c-25 2 -49 0 -53 -4z"/>
<path d="M7440 2665 c0 -13 -49 -15 -380 -15 l-380 0 0 -35 c0 -28 4 -35 20
-35 20 0 20 -7 20 -310 0 -303 0 -310 -20 -310 -16 0 -20 -7 -20 -35 l0 -35
379 0 c328 0 380 -2 385 -15 3 -9 18 -15 36 -15 l30 0 0 130 0 130 -34 0 c-25
0 -35 -5 -39 -20 -5 -19 -14 -20 -226 -20 l-221 0 0 55 0 55 139 0 c132 0 139
-1 144 -21 4 -16 12 -20 34 -17 l28 3 3 128 3 127 -35 0 c-24 0 -36 -5 -38
-17 -3 -14 -21 -16 -141 -17 l-137 -1 0 43 0 42 225 0 c218 0 225 -1 225 -20
0 -16 7 -20 35 -20 l35 0 0 130 0 130 -35 0 c-24 0 -35 -5 -35 -15z m20 -112
l0 -48 -260 3 -260 3 0 -91 0 -90 175 0 175 0 0 -45 0 -45 -175 0 -175 0 0
-105 0 -106 260 3 260 3 0 -47 0 -48 -345 0 -345 0 0 330 0 330 345 0 345 0 0
-47z"/>
<path d="M12680 2665 c0 -13 -49 -15 -380 -15 l-380 0 0 -34 c0 -28 4 -35 23
-38 l22 -3 3 -307 2 -307 -22 -3 c-18 -2 -24 -11 -26 -35 l-3 -33 381 0 c329
0 381 -2 386 -15 4 -9 19 -15 35 -15 l29 0 0 130 0 130 -31 0 c-22 0 -32 -5
-36 -20 -5 -19 -14 -20 -229 -20 l-224 0 0 55 0 55 139 0 c132 0 139 -1 144
-21 4 -16 12 -20 34 -17 l28 3 3 128 3 127 -35 0 c-24 0 -35 -5 -38 -17 -4
-16 -18 -18 -141 -15 l-137 3 0 40 0 39 225 0 c218 0 225 -1 225 -20 0 -16 7
-20 35 -20 l35 0 0 130 0 130 -35 0 c-24 0 -35 -5 -35 -15z m20 -112 l0 -48
-257 0 -258 0 -3 -87 -3 -88 176 0 175 0 0 -45 0 -45 -175 0 -175 0 0 -105 0
-106 260 3 260 3 0 -47 0 -48 -345 0 -345 0 0 330 0 330 345 0 345 0 0 -47z"/>
<path d="M4430 2615 c0 -31 3 -35 25 -35 l25 0 0 -310 0 -310 -25 0 c-22 0
-25 -4 -25 -35 l0 -35 186 0 185 0 -3 33 c-2 27 -8 33 -31 35 l-27 3 2 307 3
306 25 6 c20 5 25 12 25 35 l0 30 -182 3 -183 2 0 -35z m270 -345 l0 -330 -85
0 -85 0 0 330 0 330 85 0 85 0 0 -330z"/>
<path d="M5340 2616 c0 -25 4 -36 15 -36 13 0 15 -41 15 -309 0 -265 -2 -310
-15 -315 -9 -3 -15 -18 -15 -36 l0 -30 165 0 165 0 0 31 c0 22 -5 32 -20 36
-18 5 -20 14 -20 102 l0 96 58 -3 59 -4 44 -76 c57 -100 62 -112 44 -112 -10
0 -15 -11 -15 -35 l0 -35 185 0 185 0 0 35 c0 30 -3 35 -23 35 -19 0 -38 21
-90 100 -37 55 -67 103 -67 108 0 4 16 16 36 27 174 93 163 344 -18 426 -52
23 -60 24 -370 27 l-318 3 0 -35z m675 -43 c74 -40 105 -89 105 -168 0 -85
-43 -145 -133 -186 -29 -13 -53 -24 -55 -25 -1 0 36 -58 82 -127 l84 -127 -97
0 -96 0 -10 33 c-6 18 -35 77 -65 130 l-55 97 -97 0 -98 0 0 -130 0 -130 -80
0 -80 0 0 331 0 330 278 -3 c261 -3 279 -4 317 -25z"/>
<path d="M5580 2400 l0 -110 146 0 c116 0 153 3 181 17 74 35 79 141 10 183
-28 17 -51 20 -184 20 l-153 0 0 -110z m320 40 c11 -11 20 -29 20 -40 0 -11
-9 -29 -20 -40 -18 -18 -33 -20 -145 -20 l-125 0 0 60 0 60 125 0 c112 0 127
-2 145 -20z"/>
<path d="M8030 2615 c0 -28 4 -35 20 -35 20 0 20 -7 20 -309 0 -300 -1 -309
-20 -314 -15 -4 -20 -14 -20 -36 l0 -31 365 0 c362 0 365 0 365 -21 0 -17 5
-20 33 -17 l32 3 3 143 3 142 -36 0 c-28 0 -35 -4 -35 -20 0 -19 -7 -20 -210
-20 l-210 0 0 240 c0 233 1 240 20 240 16 0 20 7 20 35 l0 35 -175 0 -175 0 0
-35z m260 -290 l0 -276 245 3 245 3 0 -57 0 -58 -330 0 -330 0 0 330 0 330 85
0 85 0 0 -275z"/>
<path d="M10590 2615 c0 -27 4 -35 18 -35 27 0 54 -68 177 -432 47 -140 60
-188 49 -188 -9 0 -14 -11 -14 -35 l0 -35 190 0 190 0 0 34 c0 21 -5 36 -13
38 -17 4 231 618 249 618 13 0 22 27 16 53 -3 15 -19 17 -158 17 l-154 0 0
-35 c0 -25 4 -35 16 -35 9 0 14 -4 12 -8 -60 -152 -135 -319 -140 -314 -5 6
-118 309 -118 318 0 2 9 4 21 4 17 0 20 5 17 33 l-3 32 -177 3 -178 2 0 -35z
m308 -143 c92 -269 110 -317 124 -320 8 -2 19 3 25 10 12 16 149 347 166 400
l12 38 72 0 c56 0 73 -3 73 -14 0 -8 -23 -70 -51 -138 -28 -67 -85 -209 -127
-315 l-77 -192 -105 -1 -105 0 -48 148 c-27 81 -78 227 -113 324 -35 97 -64
180 -64 183 0 3 39 5 88 5 l87 -1 43 -127z"/>
</g>
</svg>
